<svg role="img" viewBox="0 0 560 120" xmlns="http://www.w3.org/2000/svg"><title>AI agents</title><rect width="560" height="120" rx="24" fill="#ffffff" stroke="#e2e2e2" stroke-width="1"/><g transform="translate(38,28) scale(2.6667)"><path fill="#0467DF" d="M6.915 4.03c-1.968 0-3.683 1.28-4.871 3.113C.704 9.208 0 11.883 0 14.449c0 .706.07 1.369.21 1.973a6.624 6.624 0 0 0 .265.86 5.297 5.297 0 0 0 .371.761c.696 1.159 1.818 1.927 3.593 1.927 1.497 0 2.633-.671 3.965-2.444.76-1.012 1.144-1.626 2.663-4.32l.756-1.339.186-.325c.061.1.121.196.183.3l2.152 3.595c.724 1.21 1.665 2.556 2.47 3.314 1.046.987 1.992 1.22 3.06 1.22 1.075 0 1.876-.355 2.455-.843a3.743 3.743 0 0 0 .81-.973c.542-.939.861-2.127.861-3.745 0-2.72-.681-5.357-2.084-7.45-1.282-1.912-2.957-2.93-4.716-2.93-1.047 0-2.088.467-3.053 1.308-.652.57-1.257 1.29-1.82 2.05-.69-.875-1.335-1.547-1.958-2.056-1.182-.966-2.315-1.303-3.454-1.303zm10.16 2.053c1.147 0 2.188.758 2.992 1.999 1.132 1.748 1.647 4.195 1.647 6.4 0 1.548-.368 2.9-1.839 2.9-.58 0-1.027-.23-1.664-1.004-.496-.601-1.343-1.878-2.832-4.358l-.617-1.028a44.908 44.908 0 0 0-1.255-1.98c.07-.109.141-.224.211-.327 1.12-1.667 2.118-2.602 3.358-2.602zm-10.201.553c1.265 0 2.058.791 2.675 1.446.307.327.737.871 1.234 1.579l-1.02 1.566c-.757 1.163-1.882 3.017-2.837 4.338-1.191 1.649-1.81 1.817-2.486 1.817-.524 0-1.038-.237-1.383-.794-.263-.426-.464-1.13-.464-2.046 0-2.221.63-4.535 1.66-6.088.454-.687.964-1.226 1.533-1.533a2.264 2.264 0 0 1 1.088-.285z"/></g><g transform="translate(178,28) scale(2.6667)"><path fill="#D97757" d="M17.3041 3.541h-3.6718l6.696 16.918H24Zm-10.6082 0L0 20.459h3.7442l1.3693-3.5527h7.0052l1.3693 3.5528h3.7442L10.5363 3.5409Zm-.3712 10.2232 2.2914-5.9456 2.2914 5.9456Z"/></g><g transform="translate(318,28) scale(2.6667)"><path fill="#000000" d="M9.4 16.6 4.8 12l4.6-4.6L8 6l-6 6 6 6 1.4-1.4zm5.2 0 4.6-4.6-4.6-4.6L16 6l6 6-6 6-1.4-1.4z"/></g><g transform="translate(458,28) scale(2.6667)"><path fill="#4285F4" d="M23.49 12.27c0-.79-.07-1.54-.19-2.27H12v4.51h6.47c-.29 1.48-1.14 2.73-2.4 3.58v3h3.86c2.26-2.09 3.56-5.17 3.56-8.82z"/><path fill="#34A853" d="M12 24c3.24 0 5.95-1.08 7.93-2.91l-3.86-3c-1.08.72-2.45 1.16-4.07 1.16-3.13 0-5.78-2.11-6.73-4.96H1.29v3.09C3.26 21.3 7.31 24 12 24z"/><path fill="#FBBC05" d="M5.27 14.29c-.25-.72-.38-1.49-.38-2.29s.14-1.57.38-2.29V6.62H1.29C.47 8.24 0 10.06 0 12s.47 3.76 1.29 5.38l3.98-3.09z"/><path fill="#EA4335" d="M12 4.75c1.77 0 3.35.61 4.6 1.8l3.42-3.42C17.95 1.19 15.24 0 12 0 7.31 0 3.26 2.7 1.29 6.62l3.98 3.09C6.22 6.86 8.87 4.75 12 4.75z"/></g></svg>
